<svg xmlns="http://www.w3.org/2000/svg"
  width="495" height="162"
  viewBox="0 0 495 162"
  role="img"
  aria-label="Top programming languages for NaXeMate">

  <title>Top Languages – NaXeMate</title>

  <style>
    .card      { fill: #161b22; stroke: #30363d; stroke-width: 1; }
    .title     { font: 600 14px -apple-system, BlinkMacSystemFont, 'Segoe UI', sans-serif; fill: #00D9FF; }
    .updated   { font: 400 10px -apple-system, BlinkMacSystemFont, 'Segoe UI', sans-serif; fill: #484f58; }
    .lang-name { font: 500 11px -apple-system, BlinkMacSystemFont, 'Segoe UI', sans-serif; fill: #c9d1d9; }
    .lang-pct  { font: 600 11px -apple-system, BlinkMacSystemFont, 'Segoe UI', sans-serif; fill: #8b949e; }
  </style>

  <defs>
    <!-- Clip all bar segments to the rounded bar shape -->
    <clipPath id="bar-clip">
      <rect x="20" y="52" width="455" height="10" rx="5" />
    </clipPath>
  </defs>

  <!-- Card background -->
  <rect width="495" height="162" rx="6" ry="6" class="card" />

  <!-- Title -->
  <text x="20" y="30" class="title">⚡ Languages Used</text>

  <!-- Last updated -->
  <text x="475" y="30" class="updated" text-anchor="end">Updated Jul 3, 2026</text>

  <!-- Stacked bar background track -->
  <rect x="20" y="52" width="455" height="10" rx="5" fill="#21262d" />

  <!-- Stacked bar segments (clipped to rounded track) -->
  <g clip-path="url(#bar-clip)">
    <rect x="20.00" y="52" width="240.61" height="10" fill="#b07219" />
    <rect x="260.61" y="52" width="62.39" height="10" fill="#3178c6" />
    <rect x="323.00" y="52" width="58.09" height="10" fill="#563d7c" />
    <rect x="381.09" y="52" width="53.50" height="10" fill="#8b949e" />
    <rect x="434.60" y="52" width="35.01" height="10" fill="#e34c26" />
    <rect x="469.60" y="52" width="4.58" height="10" fill="#f1e05a" />
    <rect x="474.18" y="52" width="2.00" height="10" fill="#F05138" />
    <rect x="476.18" y="52" width="2.00" height="10" fill="#384d54" />
  </g>

  <!-- Legend -->
  
    <g transform="translate(20, 76)">
      <circle cx="5" cy="5" r="5" fill="#b07219" />
      <text x="14" y="9" class="lang-name">Java</text>
      <text x="14" y="9" class="lang-pct" dx="28.8">52.88%</text>
    </g>
    <g transform="translate(171.66666666666666, 76)">
      <circle cx="5" cy="5" r="5" fill="#3178c6" />
      <text x="14" y="9" class="lang-name">TypeScript</text>
      <text x="14" y="9" class="lang-pct" dx="72">13.71%</text>
    </g>
    <g transform="translate(323.3333333333333, 76)">
      <circle cx="5" cy="5" r="5" fill="#563d7c" />
      <text x="14" y="9" class="lang-name">CSS</text>
      <text x="14" y="9" class="lang-pct" dx="21.6">12.77%</text>
    </g>
    <g transform="translate(20, 98)">
      <circle cx="5" cy="5" r="5" fill="#8b949e" />
      <text x="14" y="9" class="lang-name">C#</text>
      <text x="14" y="9" class="lang-pct" dx="14.4">11.76%</text>
    </g>
    <g transform="translate(171.66666666666666, 98)">
      <circle cx="5" cy="5" r="5" fill="#e34c26" />
      <text x="14" y="9" class="lang-name">HTML</text>
      <text x="14" y="9" class="lang-pct" dx="28.8">7.69%</text>
    </g>
    <g transform="translate(323.3333333333333, 98)">
      <circle cx="5" cy="5" r="5" fill="#f1e05a" />
      <text x="14" y="9" class="lang-name">JavaScript</text>
      <text x="14" y="9" class="lang-pct" dx="72">1.01%</text>
    </g>
    <g transform="translate(20, 120)">
      <circle cx="5" cy="5" r="5" fill="#F05138" />
      <text x="14" y="9" class="lang-name">Swift</text>
      <text x="14" y="9" class="lang-pct" dx="36">0.15%</text>
    </g>
    <g transform="translate(171.66666666666666, 120)">
      <circle cx="5" cy="5" r="5" fill="#384d54" />
      <text x="14" y="9" class="lang-name">Dockerfile</text>
      <text x="14" y="9" class="lang-pct" dx="72">0.03%</text>
    </g>
</svg>