<svg xmlns="http://www.w3.org/2000/svg"
  width="495" height="184"
  viewBox="0 0 495 184"
  role="img"
  aria-label="Top programming languages for NaXeMate">

  <title>Top Languages – NaXeMate</title>

  <style>
    .card      { fill: #161b22; stroke: #30363d; stroke-width: 1; }
    .title     { font: 600 14px -apple-system, BlinkMacSystemFont, 'Segoe UI', sans-serif; fill: #00D9FF; }
    .updated   { font: 400 10px -apple-system, BlinkMacSystemFont, 'Segoe UI', sans-serif; fill: #484f58; }
    .lang-name { font: 500 11px -apple-system, BlinkMacSystemFont, 'Segoe UI', sans-serif; fill: #c9d1d9; }
    .lang-pct  { font: 600 11px -apple-system, BlinkMacSystemFont, 'Segoe UI', sans-serif; fill: #8b949e; }
  </style>

  <defs>
    <!-- Clip all bar segments to the rounded bar shape -->
    <clipPath id="bar-clip">
      <rect x="20" y="52" width="455" height="10" rx="5" />
    </clipPath>
  </defs>

  <!-- Card background -->
  <rect width="495" height="184" rx="6" ry="6" class="card" />

  <!-- Title -->
  <text x="20" y="30" class="title">⚡ Languages Used</text>

  <!-- Last updated -->
  <text x="475" y="30" class="updated" text-anchor="end">Updated Apr 11, 2026</text>

  <!-- Stacked bar background track -->
  <rect x="20" y="52" width="455" height="10" rx="5" fill="#21262d" />

  <!-- Stacked bar segments (clipped to rounded track) -->
  <g clip-path="url(#bar-clip)">
    <rect x="20.00" y="52" width="189.69" height="10" fill="#b07219" />
    <rect x="209.69" y="52" width="63.36" height="10" fill="#563d7c" />
    <rect x="273.05" y="52" width="56.42" height="10" fill="#e34c26" />
    <rect x="329.47" y="52" width="51.39" height="10" fill="#3178c6" />
    <rect x="380.86" y="52" width="50.74" height="10" fill="#8b949e" />
    <rect x="431.60" y="52" width="16.52" height="10" fill="#f34b7d" />
    <rect x="448.12" y="52" width="13.13" height="10" fill="#8b949e" />
    <rect x="461.25" y="52" width="6.88" height="10" fill="#f1e05a" />
    <rect x="468.13" y="52" width="4.44" height="10" fill="#00B4AB" />
    <rect x="472.57" y="52" width="2.00" height="10" fill="#F05138" />
    <rect x="474.57" y="52" width="2.00" height="10" fill="#555555" />
    <rect x="476.57" y="52" width="2.00" height="10" fill="#A97BFF" />
  </g>

  <!-- Legend -->
  
    <g transform="translate(20, 76)">
      <circle cx="5" cy="5" r="5" fill="#b07219" />
      <text x="14" y="9" class="lang-name">Java</text>
      <text x="14" y="9" class="lang-pct" dx="28.8">41.69%</text>
    </g>
    <g transform="translate(171.66666666666666, 76)">
      <circle cx="5" cy="5" r="5" fill="#563d7c" />
      <text x="14" y="9" class="lang-name">CSS</text>
      <text x="14" y="9" class="lang-pct" dx="21.6">13.92%</text>
    </g>
    <g transform="translate(323.3333333333333, 76)">
      <circle cx="5" cy="5" r="5" fill="#e34c26" />
      <text x="14" y="9" class="lang-name">HTML</text>
      <text x="14" y="9" class="lang-pct" dx="28.8">12.40%</text>
    </g>
    <g transform="translate(20, 98)">
      <circle cx="5" cy="5" r="5" fill="#3178c6" />
      <text x="14" y="9" class="lang-name">TypeScript</text>
      <text x="14" y="9" class="lang-pct" dx="72">11.29%</text>
    </g>
    <g transform="translate(171.66666666666666, 98)">
      <circle cx="5" cy="5" r="5" fill="#8b949e" />
      <text x="14" y="9" class="lang-name">C#</text>
      <text x="14" y="9" class="lang-pct" dx="14.4">11.15%</text>
    </g>
    <g transform="translate(323.3333333333333, 98)">
      <circle cx="5" cy="5" r="5" fill="#f34b7d" />
      <text x="14" y="9" class="lang-name">C++</text>
      <text x="14" y="9" class="lang-pct" dx="21.6">3.63%</text>
    </g>
    <g transform="translate(20, 120)">
      <circle cx="5" cy="5" r="5" fill="#8b949e" />
      <text x="14" y="9" class="lang-name">CMake</text>
      <text x="14" y="9" class="lang-pct" dx="36">2.89%</text>
    </g>
    <g transform="translate(171.66666666666666, 120)">
      <circle cx="5" cy="5" r="5" fill="#f1e05a" />
      <text x="14" y="9" class="lang-name">JavaScript</text>
      <text x="14" y="9" class="lang-pct" dx="72">1.51%</text>
    </g>
    <g transform="translate(323.3333333333333, 120)">
      <circle cx="5" cy="5" r="5" fill="#00B4AB" />
      <text x="14" y="9" class="lang-name">Dart</text>
      <text x="14" y="9" class="lang-pct" dx="28.8">0.98%</text>
    </g>
    <g transform="translate(20, 142)">
      <circle cx="5" cy="5" r="5" fill="#F05138" />
      <text x="14" y="9" class="lang-name">Swift</text>
      <text x="14" y="9" class="lang-pct" dx="36">0.30%</text>
    </g>
    <g transform="translate(171.66666666666666, 142)">
      <circle cx="5" cy="5" r="5" fill="#555555" />
      <text x="14" y="9" class="lang-name">C</text>
      <text x="14" y="9" class="lang-pct" dx="7.2">0.22%</text>
    </g>
    <g transform="translate(323.3333333333333, 142)">
      <circle cx="5" cy="5" r="5" fill="#A97BFF" />
      <text x="14" y="9" class="lang-name">Kotlin</text>
      <text x="14" y="9" class="lang-pct" dx="43.2">0.02%</text>
    </g>
</svg>